<svg width="60" height="60" viewBox="0 0 60 60" fill="none" xmlns="http://www.w3.org/2000/svg">
<path d="M48.5425 16.6975C51.1175 19.4325 52.5 22.5 52.5 27.4725C52.5 36.2225 46.3575 44.065 37.425 47.9425L35.1925 44.4975C43.53 39.9875 45.16 34.135 45.81 30.445C44.4675 31.14 42.71 31.3825 40.9875 31.2225C36.4775 30.805 32.9225 27.1025 32.9225 22.5C32.9225 20.1794 33.8444 17.9538 35.4853 16.3128C37.1263 14.6719 39.3519 13.75 41.6725 13.75C44.355 13.75 46.92 14.975 48.5425 16.6975V16.6975ZM23.5425 16.6975C26.1175 19.4325 27.5 22.5 27.5 27.4725C27.5 36.2225 21.3575 44.065 12.425 47.9425L10.1925 44.4975C18.53 39.9875 20.16 34.135 20.81 30.445C19.4675 31.14 17.71 31.3825 15.9875 31.2225C11.4775 30.805 7.9225 27.1025 7.9225 22.5C7.9225 20.1794 8.84437 17.9538 10.4853 16.3128C12.1263 14.6719 14.3519 13.75 16.6725 13.75C19.355 13.75 21.92 14.975 23.5425 16.6975V16.6975Z" fill="#32B5FF"/>
</svg>
